<?xml version="1.0" encoding="utf-8"?>
<!-- Generator: Adobe Illustrator 27.7.0, SVG Export Plug-In . SVG Version: 6.00 Build 0)  -->
<svg version="1.1" xmlns="http://www.w3.org/2000/svg" xmlns:xlink="http://www.w3.org/1999/xlink" x="0px" y="0px"
	 viewBox="0 0 934.47 778.98" style="enable-background:new 0 0 934.47 778.98;" xml:space="preserve">
<style type="text/css">
	.st0{fill:#BD0019;stroke:#FFFFFF;stroke-width:14;stroke-miterlimit:10;}
	.st1{fill:#BD0019;}
	.st2{fill:none;stroke:#FFFFFF;stroke-width:14;stroke-linecap:round;stroke-linejoin:round;stroke-miterlimit:10;}
	.st3{fill:#FFFFFF;}
</style>
<g id="Layer_2">
	<path class="st0" d="M480.19,89.49h-28.26c-19.94,0-36.26-16.31-36.26-36.26v0c0-19.94,16.31-36.26,36.26-36.26h28.26
		c19.94,0,36.26,16.31,36.26,36.26v0C516.45,73.17,500.13,89.49,480.19,89.49z"/>
	<rect x="63.38" y="492.89" class="st1" width="793.53" height="133.79"/>
	<path class="st0" d="M60.53,554.06c0,0-95.8,231.68,60.86,205.94c150.14-24.67,328.08-51.92,342.61-54.15
		c0.64-0.1,1.28-0.15,1.92-0.15l0,0c0.65,0,1.28,0.05,1.92,0.15c14.54,2.22,192.47,29.47,342.61,54.15
		c156.66,25.74,60.86-205.94,60.86-205.94"/>
	<path class="st0" d="M467.23,497.33h2c0,0,262.52,13.95,417.13,60.47h0.26c68.72-4.64,73.63-493.02-417.26-502.33h-2h-0.26h-2
		C-25.78,64.77-20.87,553.15,47.85,557.79h0.26c154.6-46.51,417.13-60.47,417.13-60.47H467.23"/>
	<path class="st2" d="M84.64,631.11c0,0-49.83,98.81,37.93,88.09l334.87-51.01c3.88-0.59,7.83-0.6,11.71-0.02l342.74,51.03
		c87.76,10.72,37.93-88.09,37.93-88.09"/>
	<path class="st2" d="M222.61,472.41c-0.35,4.57-0.66,9.19-0.93,13.85"/>
	<path class="st2" d="M400.91,97.66c0,0-46.25,33.79-91.91,105.76"/>
	<path class="st2" d="M712.98,472.41c0.35,4.57,0.66,9.19,0.93,13.85"/>
	<path class="st2" d="M534.67,97.66c0,0,46.25,33.79,91.91,105.76"/>
</g>
<g id="Layer_3">
	<g>
		<path class="st3" d="M280.75,192.74l27.24,34.21v61.62h-35.48v-51.32h-48.1v71.09h55.67l27.9,34.38v81.55l-27.24,34.05h-64.71
			l-27.24-34.05V379.1h35.61v34.71h48.1v-61.12h-57.14l-26.57-33.88v-91.85l27.24-34.21H280.75z"/>
		<path class="st3" d="M415.88,192.74l27.24,34.21v86.87l-9.7,12.12l9.7,11.79v86.53l-27.24,34.05h-60.72l-27.24-34.05V379.1h35.61
			v34.71h44.11v-66.1h-32.42v-44.35h32.42v-66.1h-44.11v51.32h-35.61v-61.62l27.24-34.21H415.88z"/>
		<path class="st3" d="M556.6,413.81V237.26h-13.55v-44.35h63.25v44.35h-13.82v187.02l-27.24,34.05h-61.12l-27.24-34.05V237.26
			h-13.82v-44.35h63.25v44.35h-13.55v176.56H556.6z"/>
		<path class="st3" d="M718.17,192.74l27.24,34.21v61.62h-35.48v-51.32h-48.1v71.09h55.67l27.9,34.38v81.55l-27.24,34.05h-64.71
			l-27.24-34.05V379.1h35.61v34.71h48.1v-61.12H652.8l-26.57-33.88v-91.85l27.24-34.21H718.17z"/>
	</g>
</g>
</svg>
