<?xml version="1.0" encoding="utf-8"?>
<!-- Generator: Adobe Illustrator 27.7.0, SVG Export Plug-In . SVG Version: 6.00 Build 0)  -->
<svg version="1.1" id="Layer_1" xmlns="http://www.w3.org/2000/svg" xmlns:xlink="http://www.w3.org/1999/xlink" x="0px" y="0px"
	 viewBox="0 0 934.5 779" style="enable-background:new 0 0 934.5 779;" xml:space="preserve">
<style type="text/css">
	.st0{fill:#BD0019;stroke:#FFFFFF;stroke-width:14;stroke-miterlimit:10;}
	.st1{fill:#BD0019;}
	.st2{fill:none;stroke:#FFFFFF;stroke-width:14;stroke-linecap:round;stroke-linejoin:round;stroke-miterlimit:10;}
	.st3{display:none;}
	.st4{display:inline;}
	.st5{fill:#FFFFFF;}
	.st6{display:inline;fill:#FFFFFF;}
</style>
<g id="Layer_2_00000168822471421354396000000017249232442936191124_">
	<path class="st0" d="M480.2,89.5h-28.3c-19.9,0-36.3-16.3-36.3-36.3l0,0c0-19.9,16.3-36.3,36.3-36.3h28.3
		c19.9,0,36.3,16.3,36.3,36.3l0,0C516.5,73.2,500.1,89.5,480.2,89.5z"/>
	<rect x="63.4" y="492.9" class="st1" width="793.5" height="133.8"/>
	<path class="st0" d="M60.5,554.1c0,0-95.8,231.7,60.9,205.9c150.1-24.7,328.1-51.9,342.6-54.2c0.6-0.1,1.3-0.2,1.9-0.2l0,0
		c0.6,0,1.3,0,1.9,0.2c14.5,2.2,192.5,29.5,342.6,54.2c156.7,25.7,60.9-205.9,60.9-205.9"/>
	<path class="st0" d="M467.2,497.3h2c0,0,262.5,14,417.1,60.5h0.3c68.7-4.6,73.6-493-417.3-502.3h-2h-0.3h-2
		c-490.9,9.3-486,497.7-417.2,502.3h0.3c154.6-46.5,417.1-60.5,417.1-60.5L467.2,497.3"/>
	<path class="st2" d="M84.6,631.1c0,0-49.8,98.8,37.9,88.1l334.9-51c3.9-0.6,7.8-0.6,11.7,0l342.7,51c87.8,10.7,37.9-88.1,37.9-88.1
		"/>
	<path class="st2" d="M222.6,472.4c-0.4,4.6-0.7,9.2-0.9,13.9"/>
	<path class="st2" d="M400.9,97.7c0,0-102.3,73.2-129.8,180.4"/>
	<path class="st2" d="M707.7,455.5c0.3,4.6,6,26.1,6.3,30.7"/>
	<path class="st2" d="M534.7,97.7c0,0,64.7,48.9,101,120.8"/>
</g>
<g id="Layer_3" class="st3">
	<g class="st4">
		<path class="st5" d="M280.8,192.7L308,227v61.6h-35.5v-51.3h-48.1v71.1h55.7l27.9,34.4v81.6l-27.2,34H216l-27.2-34v-45.2h35.6
			v34.7h48.1v-61.1h-57.1l-26.6-33.9V227l27.2-34.2L280.8,192.7L280.8,192.7z"/>
		<path class="st5" d="M415.9,192.7l27.2,34.2v86.9l-9.7,12.1l9.7,11.8v86.5l-27.2,34h-60.7l-27.2-34v-45.2h35.6v34.7h44.1v-66.1
			h-32.4v-44.4h32.4v-66.1h-44.1v51.3h-35.6V227l27.2-34.2L415.9,192.7L415.9,192.7z"/>
		<path class="st5" d="M556.6,413.8V237.3H543v-44.3h63.2v44.4h-13.8v187l-27.2,34h-61.1l-27.2-34v-187h-13.8v-44.3h63.2v44.4h-13.5
			v176.6L556.6,413.8L556.6,413.8z"/>
		<path class="st5" d="M718.2,192.7l27.2,34.2v61.6h-35.5v-51.3h-48.1v71.1h55.7l27.9,34.4v81.6l-27.2,34h-64.7l-27.2-34v-45.2h35.6
			v34.7h48.1v-61.1h-57.1l-26.6-33.9V227l27.2-34.2L718.2,192.7L718.2,192.7z"/>
	</g>
</g>
<g class="st3">
	<path class="st6" d="M230.5,452.3v-38.8h15.1V258.8h-15.1V220h54.1v193.5h15.1v38.8H230.5z"/>
	<path class="st6" d="M412.4,220h39v232.3h-39v-96.8h-90.9V220h39v96.7h51.9V220z"/>
	<path class="st6" d="M515.2,273.5h-10.7v24.6h-31.3v-56.2h114.6v56.2h-31.3v-24.6h-9.8v125.1h12V430h-56v-31.4h12.5V273.5z"/>
	<path class="st6" d="M687.1,351.6h-37.9v46.9h12.2V430h-56v-31.4h11.6V273.4h-11.6V242h56v31.4h-12.2v46.8h37.9v-46.8h-12.2V242h56
		v31.4h-12.1v125.2h12.1V430h-56v-31.4h12.2V351.6z"/>
</g>
<g>
	<path class="st5" d="M248.7,401h13.8v49.3h-83V401h13.8V267.8h-13.8v-49.3h69.2L248.7,401z"/>
	<path class="st5" d="M431.6,383.7h-13.8V401h13.8v49.3h-83V401h13.8v-17.3h-78.9v-49.3l43.2-115.9h91.1l0,115.9h13.8V383.7z
		 M362.4,334.4v-52l-18.9,52H362.4z"/>
	<path class="st5" d="M560.2,301.2v-20.9h-11.5v111.4h11.5V433h-69.4v-41.3h11.5V280.3h-11.5v20.9h-40.5v-62.1h150.5v62.1H560.2z"/>
	<path class="st5" d="M768.8,280.3h-11.5v111.4h11.5V433h-69.4v-41.3h11.6l0-35.1h-34.7l0,35.1h11.5V433h-69.4v-41.3h11.6l0-111.4
		h-11.5v-41.3h69.4v41.3h-11.6l0,35.1h34.7l0-35.1h-11.5v-41.3h69.4V280.3z"/>
</g>
</svg>
